<?xml version="1.0" standalone="no"?>
<!DOCTYPE svg PUBLIC "-//W3C//DTD SVG 20010904//EN"
 "http://www.w3.org/TR/2001/REC-SVG-20010904/DTD/svg10.dtd">
<svg version="1.0" xmlns="http://www.w3.org/2000/svg"
 width="512.000000pt" height="512.000000pt" viewBox="0 0 512.000000 512.000000"
 preserveAspectRatio="xMidYMid meet">
<metadata>
Created by potrace 1.16, written by Peter Selinger 2001-2019
</metadata>
<g transform="translate(0.000000,512.000000) scale(0.100000,-0.100000)"
fill="#000000" stroke="none">
<path d="M3456 5106 c-54 -20 -106 -65 -141 -121 l-30 -48 -3 -1116 c-3 -1238
-7 -1156 65 -1293 43 -82 146 -184 228 -226 117 -59 141 -62 457 -62 281 0
288 0 288 -20 0 -11 9 -29 20 -40 17 -17 33 -20 120 -20 l100 0 0 -60 c0 -102
-4 -100 280 -100 227 0 241 1 260 20 27 27 27 93 0 120 -19 19 -33 20 -200 20
l-180 0 0 600 0 600 180 0 c167 0 181 1 200 20 13 13 20 33 20 60 0 27 -7 47
-20 60 -19 19 -33 20 -260 20 -284 0 -280 2 -280 -100 l0 -60 -100 0 c-87 0
-103 -3 -120 -20 -11 -11 -20 -29 -20 -40 0 -17 -7 -20 -37 -20 l-38 1 -199
797 c-110 438 -206 819 -214 845 -18 63 -66 124 -125 161 -41 25 -60 30 -130
33 -54 2 -95 -2 -121 -11z m178 -188 c29 -30 38 -54 84 -238 288 -1142 374
-1477 388 -1497 28 -44 73 -63 147 -63 l67 0 0 -360 0 -360 -227 0 c-126 0
-259 5 -298 10 -182 26 -319 163 -345 345 -13 94 -13 859 0 907 32 115 188
115 220 0 5 -21 10 -154 10 -309 0 -260 1 -274 20 -293 27 -27 93 -27 120 0
19 19 20 33 20 328 0 180 -4 322 -10 344 -15 53 -67 117 -123 152 -37 23 -62
30 -120 34 -39 2 -89 0 -110 -6 l-37 -10 0 461 c0 284 4 476 10 499 15 51 61
88 112 88 32 0 47 -7 72 -32z m926 -2158 l0 -440 -40 0 -40 0 0 440 0 440 40
0 40 0 0 -440z"/>
<path d="M1515 4746 c-180 -38 -187 -56 -100 -273 30 -76 55 -141 55 -145 0
-4 -35 -8 -77 -8 l-77 0 -241 -240 c-132 -132 -248 -240 -258 -240 -10 0 -17
8 -17 20 0 11 -9 29 -20 40 -17 17 -33 20 -120 20 l-100 0 0 60 c0 102 4 100
-280 100 -227 0 -241 -1 -260 -20 -27 -27 -27 -93 0 -120 19 -19 33 -20 200
-20 l180 0 0 -600 0 -600 -180 0 c-167 0 -181 -1 -200 -20 -27 -27 -27 -93 0
-120 19 -19 33 -20 260 -20 284 0 280 -2 280 100 l0 60 100 0 c87 0 103 3 120
20 11 11 20 29 20 40 0 37 41 22 198 -72 l154 -92 -68 -60 c-332 -297 -531
-623 -588 -965 -18 -109 -21 -329 -5 -434 65 -438 352 -827 754 -1023 116 -56
272 -105 392 -123 92 -14 314 -14 406 0 279 41 553 180 758 384 207 205 349
486 390 773 15 107 6 381 -16 479 -74 336 -281 664 -578 921 l-97 84 28 46
c24 42 27 56 27 143 0 90 -2 99 -32 147 l-32 52 32 52 c30 48 32 56 32 148 0
92 -2 100 -32 148 l-32 52 32 52 c30 48 32 56 32 148 0 92 -2 100 -32 148
l-32 52 31 50 c25 41 32 64 36 123 2 39 -1 91 -7 114 -16 57 -67 121 -124 157
-41 25 -61 30 -133 34 -46 3 -84 7 -84 11 0 4 25 68 55 144 60 150 67 195 34
228 -23 23 -61 23 -184 0 -92 -18 -155 -13 -245 20 -69 25 -104 31 -190 34
-62 2 -130 -1 -165 -9z m297 -187 c67 -23 117 -33 188 -38 l98 -6 -38 -95 -38
-95 -182 0 -182 0 -44 109 c-59 147 -58 144 -37 149 58 15 149 6 235 -24z
m490 -409 c51 -15 88 -61 88 -111 0 -55 -39 -96 -110 -114 -63 -17 -80 -34
-80 -85 0 -51 17 -68 80 -85 149 -39 149 -191 0 -230 -63 -17 -80 -34 -80 -85
0 -51 17 -68 80 -85 149 -39 149 -191 0 -230 -63 -17 -80 -34 -80 -85 0 -51
17 -68 80 -85 71 -18 110 -59 110 -114 0 -50 -37 -96 -88 -111 -23 -6 -219
-10 -512 -10 l-475 0 -200 120 c-194 116 -202 120 -257 120 l-58 0 0 360 0
360 62 0 62 0 241 240 240 240 430 0 c263 0 444 -4 467 -10z m-1662 -830 l0
-440 -40 0 -40 0 0 440 0 440 40 0 40 0 0 -440z m1753 -807 c101 -76 317 -300
387 -401 122 -174 205 -367 235 -551 25 -145 17 -359 -18 -491 -56 -213 -160
-394 -316 -551 -156 -155 -335 -258 -551 -317 -87 -24 -112 -26 -290 -26 -178
0 -203 2 -290 26 -216 59 -395 162 -551 317 -156 157 -260 338 -316 551 -34
130 -43 364 -19 495 36 188 116 375 233 538 80 111 237 273 362 373 l105 84
484 0 484 0 61 -47z"/>
<path d="M1682 1985 c-30 -7 -92 -32 -140 -55 -123 -61 -214 -154 -275 -281
-54 -111 -67 -169 -67 -289 0 -120 13 -178 67 -289 63 -131 153 -221 284 -284
111 -54 169 -67 289 -67 120 0 178 13 289 67 131 63 221 153 284 284 54 111
67 169 67 289 0 120 -13 178 -67 289 -63 131 -153 221 -284 284 -52 25 -118
50 -147 56 -70 15 -234 13 -300 -4z m289 -171 c148 -43 279 -175 323 -323 20
-70 20 -192 0 -262 -32 -110 -115 -215 -219 -277 -139 -84 -331 -84 -470 0
-149 90 -235 239 -235 408 0 167 84 315 230 406 100 62 255 82 371 48z"/>
<path d="M1780 1580 c-19 -19 -20 -33 -20 -220 0 -187 1 -201 20 -220 27 -27
93 -27 120 0 19 19 20 33 20 220 0 187 -1 201 -20 220 -13 13 -33 20 -60 20
-27 0 -47 -7 -60 -20z"/>
</g>
</svg>
